<svg id="Layer_1" data-name="Layer 1" xmlns="http://www.w3.org/2000/svg" viewBox="0 0 332.89 360"><path d="M332.89,360H307.71V309.52H282.58V360H257.36v-1.14q0-82.33,0-164.68c0-19.83,14.08-36.21,33.62-38.41,14-1.58,25.44,3.78,34.15,14.86a36.38,36.38,0,0,1,7.75,23q0,82.68,0,165.37Zm-25.18-75.71V194.4c0-.47,0-.93,0-1.4a12.59,12.59,0,0,0-25.16.75v90.54Z" transform="translate(0 0)"/><path d="M171.21,157.58h37.68a38.28,38.28,0,0,1,38.53,38.64q0,50.55,0,101.08v24.12a38.3,38.3,0,0,1-33.34,38.18,36.48,36.48,0,0,1-4.78.36c-12.41,0-24.82,0-37.23,0h-.86Zm25.43,25.6V334.51c4.64,0,9.2,0,13.77,0a7.68,7.68,0,0,0,1.57-.26,12.83,12.83,0,0,0,10-12.9V196.25c0-.34,0-.67,0-1-.19-5.94-4.86-11.47-10.77-12C206.41,182.85,201.55,183.18,196.64,183.18Z" transform="translate(0 0)"/><path d="M161.2,257.75c0,21.28-.11,42.56,0,63.83a37.91,37.91,0,0,1-33.65,38.15c-16.45,2.09-36-8.3-40.87-28.82a41.12,41.12,0,0,1-1-9.12q-.09-64.1,0-128.17a38,38,0,0,1,32.88-37.85c18.81-2.67,37.6,10.33,41.63,28.91a43.58,43.58,0,0,1,1,9C161.24,215.06,161.2,236.4,161.2,257.75ZM136,257.7V202.3c0-3.17,0-6.35,0-9.52a12.58,12.58,0,0,0-25.15.65q0,64.27,0,128.55c0,.23,0,.46,0,.69a12.59,12.59,0,0,0,25.16-.74Q136,289.81,136,257.7Z" transform="translate(0 0)"/><path d="M75.56,205.92H50.38v-1c0-3.84,0-7.67,0-11.5a12.57,12.57,0,0,0-25.14-.32c-.07,8.75,0,17.51,0,26.26A8.71,8.71,0,0,0,27.29,225l37,45.54c2.27,2.8,4.55,5.58,6.8,8.39a19.94,19.94,0,0,1,4.48,12.73c0,10.25.11,20.49,0,30.73a38.06,38.06,0,0,1-30.49,36.92c-19.18,4-40.66-8.78-44.42-30.67a60,60,0,0,1-.58-8.28C0,316.89,0,313.46,0,310H25.21v1.89c0,3.4,0,6.81,0,10.21a12.58,12.58,0,1,0,25.16.08c0-8.49,0-17,0-25.47A9.91,9.91,0,0,0,48,290.3Q26.55,263.87,5.06,237.47A21.7,21.7,0,0,1,0,223.4q0-15,0-29.93a37.72,37.72,0,0,1,74.33-9.16,39.3,39.3,0,0,1,1.21,9.9C75.53,198.08,75.56,201.94,75.56,205.92Z" transform="translate(0 0)"/><path d="M274.74,0h1.07c5.54,0,11.09,0,16.63,0a1.37,1.37,0,0,1,1.44.9c2.95,5.9,5.94,11.79,8.92,17.68.17.33.35.64.61,1.12l.56-1C307,12.75,310.11,6.83,313.14.89A1.39,1.39,0,0,1,314.59,0c5.45,0,10.89,0,16.34,0h1.13V1.24c0,12.29,0,24.58,0,36.87a35,35,0,0,1-4.4,17.56c-2.06,3.67-4.06,7.38-4.89,11.56-1.81,9-1.21,17.79,3.37,26,2,3.65,4.15,7.29,4.91,11.45a51.71,51.71,0,0,1,1,8.93c.11,12.49.05,25,.05,37.48V152H313V113.23a34.68,34.68,0,0,0-4.34-17.07c-1.91-3.44-3.87-6.88-4.75-10.77-2.06-9-1.55-17.83,2.8-26.19,1.88-3.61,4-7.12,5-11.12a38,38,0,0,0,.89-5.31c-4.19,8.49-11.25,13.83-19.31,18.17.44-3,.93-6,1.3-8.95a19.5,19.5,0,0,0-.84-8.92c-.15.85-.29,1.71-.45,2.57a34.69,34.69,0,0,1-3.75,10.09c-1.83,3.41-3.76,6.79-4.63,10.6-2.09,9.22-1.6,18.16,3,26.63A52.77,52.77,0,0,1,292.55,103a32.85,32.85,0,0,1,1.4,9.27c.05,13.07,0,26.13,0,39.19,0,.13,0,.26,0,.47h-19v-1.13c0-11.92-.07-23.85,0-35.77a38.29,38.29,0,0,0-5.09-20.21A33.66,33.66,0,0,1,265.26,83c-1.29-8.47-.54-16.61,3.58-24.31a84.59,84.59,0,0,0,4.37-9.42,27.22,27.22,0,0,0,1.52-9.94q0-19,0-38Z" transform="translate(0 0)"/><path d="M96.92,152H77.85v-1.22c0-12-.07-23.91,0-35.87a37.84,37.84,0,0,0-5-19.84,34.23,34.23,0,0,1-4.74-12.24c-1.21-8.22-.61-16.18,3.38-23.66.57-1.06,1.1-2.14,1.7-3.17a35.34,35.34,0,0,0,4.61-18.31c0-12.1,0-24.19,0-36.28V.14c.27,0,.46-.07.65-.07,9.62,0,19.24-.19,28.86.06A28.2,28.2,0,0,1,134.83,25c.79,6.55-.16,12.73-4.25,18.13-1.14,1.51-2.51,2.84-3.84,4.33,2.72,3.75,1.94,7.95,1,12.18-.9,3.89-2,7.76-2.55,11.71A34.13,34.13,0,0,0,128.5,92c1.64,3.17,3.3,6.34,4.64,9.64a31.11,31.11,0,0,1,1.9,11.89q0,18.73,0,37.47c0,.3,0,.59,0,.95H116V113.16a34.65,34.65,0,0,0-4.3-17c-1.92-3.47-3.88-6.94-4.81-10.85a38.23,38.23,0,0,1,.67-20.94c.19-.57.39-1.14.53-1.72.55-2.28-.24-4.08-2.46-4.81a21.36,21.36,0,0,0-5.28-.94c-2.63-.15-5.27-.07-7.91,0a1.23,1.23,0,0,0-.93.5,37.32,37.32,0,0,0-2.74,30.75,42.77,42.77,0,0,0,3.49,7.29,37.17,37.17,0,0,1,4.72,18.9c-.07,12.12,0,24.25,0,36.37Zm.24-114.17c3.22,0,6.35-.07,9.48,0a9.29,9.29,0,0,0,9.12-11.28,8.69,8.69,0,0,0-7.44-7.14c-3.63-.36-7.32-.16-11-.19,0,0-.1.08-.17.14Z" transform="translate(0 0)"/><path d="M226.08,152H207.17v-1.19c0-11.76-.08-23.52,0-35.28a38.11,38.11,0,0,0-5-20.1,33.42,33.42,0,0,1-4.54-11.85c-1.29-8.52-.52-16.7,3.71-24.4a75.19,75.19,0,0,0,4.17-8.85,31.53,31.53,0,0,0,1.66-11.5c0-3.41,0-6.81,0-10.21a28.38,28.38,0,0,1,56.34-5.05,32.43,32.43,0,0,1,.4,4.92c.06,3.57,0,7.14,0,10.71a33.26,33.26,0,0,1-4.47,17.42c-2.1,3.67-4.12,7.39-5,11.6-1.75,9-1,17.58,3.48,25.73a75.63,75.63,0,0,1,4.45,9.58A28.76,28.76,0,0,1,263.93,114V151c0,.3,0,.59,0,.94H245.07v-37.5h-19Zm14-56.25c-.63-1.22-1.18-2.26-1.71-3.32-4.44-8.92-4.77-18.18-1.76-27.51,1.07-3.29,2.93-6.33,4.55-9.42a30,30,0,0,0,3.72-12.82c.16-4.49.12-9,.14-13.47a7.06,7.06,0,0,0-.3-1.75A9.5,9.5,0,0,0,226,29.86c0,3.5,0,7,0,10.5a34.07,34.07,0,0,1-1.31,9.08,45.57,45.57,0,0,1-4.4,9.6c-3.94,7-4.93,14.47-4.14,22.31a35.22,35.22,0,0,0,4.89,13.9,1.27,1.27,0,0,0,.93.46c1.92,0,3.83,0,5.75,0Z" transform="translate(0 0)"/><path d="M10.63,152v-1.45c0-11.8-.07-23.59,0-35.39A38.48,38.48,0,0,0,5.54,94.78,33.25,33.25,0,0,1,1,82.8C-.26,74.58.37,66.62,4.34,59.13c1.33-2.5,2.68-5,3.83-7.59a33.68,33.68,0,0,0,2.47-13.9q0-18.15,0-36.29V.11c.3,0,.52-.08.74-.08C20.93,0,30.48-.06,40,.07c13.89.2,26.24,11.35,27.52,25.17.65,7.1.82,14.28-.56,21.37a32,32,0,0,1-3.52,9c-1.9,3.52-3.89,7-4.74,11-2,9.19-1.48,18.11,3.15,26.53,2,3.68,4.17,7.35,4.94,11.54a64.35,64.35,0,0,1,1,8.64c.16,3.43.06,6.88,0,10.32A29,29,0,0,1,39.31,152c-9.22.09-18.45,0-27.67,0Zm19.08-19.15c3.54,0,7,.22,10.34,0a9.41,9.41,0,0,0,8.71-9.74c0-3.51,0-7,0-10.53a29.72,29.72,0,0,0-2-11.17c-1.29-3.07-2.84-6-4.35-9-4.67-9.19-5-18.73-2-28.39,1-3.23,2.84-6.24,4.41-9.29a30.91,30.91,0,0,0,3.74-13.07c.17-4.54.24-9.09.13-13.62A9.1,9.1,0,0,0,41,19.37c-3.66-.4-7.39-.17-11.1-.22-.05,0-.1.09-.18.16v1.17c0,6.25,0,12.49,0,18.74A32.13,32.13,0,0,1,26.18,54c-.92,1.78-1.87,3.54-2.79,5.32-4.29,8.31-4.78,17-2.78,26,.84,3.79,2.71,7.17,4.6,10.51a35.56,35.56,0,0,1,4.51,18c0,6,0,11.89,0,17.84Z" transform="translate(0 0)"/><path d="M183.59,37.84a33.3,33.3,0,0,1-2.87,14.77c-.48,1.06-1.07,2.07-1.53,3.15a1.53,1.53,0,0,1-1.66,1c-5.68,0-11.36,0-17.05,0a1.41,1.41,0,0,0-1.46.87,37.13,37.13,0,0,0-1.7,32.48,72.72,72.72,0,0,0,3.5,6.87,33.72,33.72,0,0,1,3.89,15.79c0,6.32,0,12.64,0,19v1.19h38.21V152h-57.3v-1.2c0-11.93-.07-23.87,0-35.8a38.23,38.23,0,0,0-5.06-20.14A33.66,33.66,0,0,1,136,82.76c-1.23-8.26-.62-16.26,3.41-23.77.57-1.06,1.09-2.14,1.7-3.18a35.32,35.32,0,0,0,4.58-18.23c0-12.1,0-24.2,0-36.31V0h57.3V19H164.77V37.84Z" transform="translate(0 0)"/></svg>